# xmcd
#
# Track frame offsets: 
#        150
#        19300
#        31350
#        46475
#        74100
#        86170
#        104100
#        137550
#        154525
#        166163
#        197656
#        208534
#        233530
#        249473
#        268006
#        299327
#        313509
#
# Disc length: 4355 seconds
#
# Revision: 0
# Processed by: cddbd v1.5.2PL0 Copyright (c) Steve Scherf et al.
# Submitted via: ExactAudioCopyFreeDBPlugin 1.0
#
DISCID=f6110111
DTITLE=Livin'Blues - Bamboozle and Rocking At The Tweed Mill
DYEAR=1900
DGENRE=Blues
TTITLE0=L.B.Boogie
TTITLE1=Sunrise
TTITLE2=Keep On
TTITLE3=Hitch-Hikin'
TTITLE4=Bamboozle Song
TTITLE5=Overture
TTITLE6=Black Night 
TTITLE7=Big City Man
TTITLE8=Shady Girl, Shady Girl 
TTITLE9=Fool On You
TTITLE10=Tongue 'n' Groove
TTITLE11=You're A Stranger
TTITLE12=Sweet Suzanne
TTITLE13=Ain't No Use Crying
TTITLE14=Diving Duck Blues
TTITLE15=Eye To Eye
TTITLE16=Please Don't Leave Me
EXTD=
EXTT0=
EXTT1=
EXTT2=
EXTT3=
EXTT4=
EXTT5=
EXTT6=
EXTT7=
EXTT8=
EXTT9=
EXTT10=
EXTT11=
EXTT12=
EXTT13=
EXTT14=
EXTT15=
EXTT16=
PLAYORDER=
